<svg width="16" height="16" viewBox="0 0 16 16" fill="none" xmlns="http://www.w3.org/2000/svg">
<path d="M7.9974 11.9999C8.35102 11.9999 8.69016 12.1404 8.9402 12.3904C9.19025 12.6405 9.33073 12.9796 9.33073 13.3333C9.33073 13.6869 9.19025 14.026 8.9402 14.2761C8.69016 14.5261 8.35102 14.6666 7.9974 14.6666C7.64377 14.6666 7.30464 14.5261 7.05459 14.2761C6.80454 14.026 6.66406 13.6869 6.66406 13.3333C6.66406 12.9796 6.80454 12.6405 7.05459 12.3904C7.30464 12.1404 7.64377 11.9999 7.9974 11.9999ZM7.9974 6.66659C8.35102 6.66659 8.69016 6.80706 8.9402 7.05711C9.19025 7.30716 9.33073 7.6463 9.33073 7.99992C9.33073 8.35354 9.19025 8.69268 8.9402 8.94273C8.69016 9.19278 8.35102 9.33325 7.9974 9.33325C7.64377 9.33325 7.30464 9.19278 7.05459 8.94273C6.80454 8.69268 6.66406 8.35354 6.66406 7.99992C6.66406 7.6463 6.80454 7.30716 7.05459 7.05711C7.30464 6.80706 7.64377 6.66659 7.9974 6.66659ZM7.9974 1.33325C8.35102 1.33325 8.69016 1.47373 8.9402 1.72378C9.19025 1.97382 9.33073 2.31296 9.33073 2.66659C9.33073 3.02021 9.19025 3.35935 8.9402 3.6094C8.69016 3.85944 8.35102 3.99992 7.9974 3.99992C7.64377 3.99992 7.30464 3.85944 7.05459 3.6094C6.80454 3.35935 6.66406 3.02021 6.66406 2.66659C6.66406 2.31296 6.80454 1.97382 7.05459 1.72378C7.30464 1.47373 7.64377 1.33325 7.9974 1.33325Z" fill="#666666"/>
</svg>
