<svg width="14" height="14" viewBox="0 0 14 14" fill="none" xmlns="http://www.w3.org/2000/svg">
<path d="M1.75 3.5H2.91667H12.25" stroke="#FF6262" stroke-linecap="round" stroke-linejoin="round"/>
<path d="M4.66406 3.50008V2.33341C4.66406 2.024 4.78698 1.72725 5.00577 1.50846C5.22456 1.28966 5.52131 1.16675 5.83073 1.16675H8.16406C8.47348 1.16675 8.77023 1.28966 8.98902 1.50846C9.20781 1.72725 9.33073 2.024 9.33073 2.33341V3.50008M11.0807 3.50008V11.6667C11.0807 11.9762 10.9578 12.2729 10.739 12.4917C10.5202 12.7105 10.2235 12.8334 9.91406 12.8334H4.08073C3.77131 12.8334 3.47456 12.7105 3.25577 12.4917C3.03698 12.2729 2.91406 11.9762 2.91406 11.6667V3.50008H11.0807Z" stroke="#FF6262" stroke-linecap="round" stroke-linejoin="round"/>
<path d="M5.83594 6.41675V9.91675" stroke="#FF6262" stroke-linecap="round" stroke-linejoin="round"/>
<path d="M8.16406 6.41675V9.91675" stroke="#FF6262" stroke-linecap="round" stroke-linejoin="round"/>
</svg>
