<svg width="342" height="120" viewBox="0 0 342 120" fill="none" xmlns="http://www.w3.org/2000/svg">
<rect y="6" width="108" height="108" rx="8" fill="#FBC531"/>
<path opacity="0.5" d="M36.75 74.2807L24 32.5507L24.9 32.3107C25.8053 32.1043 26.7315 32.0036 27.66 32.0107C28.4665 31.9999 29.2716 32.0804 30.06 32.2507L36.75 74.2807Z" fill="white"/>
<path opacity="0.75" d="M36.7575 74.2797L29.4375 28.1697C30.0832 28.0738 30.7348 28.0237 31.3875 28.0197C33.2449 28.0111 35.0804 28.4212 36.7575 29.2197V74.2797Z" fill="white"/>
<path d="M80.2369 71.13C80.2369 71.13 80.2369 71.28 80.2369 71.34V71.61C80.2405 72.2034 80.0442 72.7807 79.6795 73.2487C79.3148 73.7168 78.8031 74.0484 78.2269 74.19H77.3569H76.7869C74.9187 74.1949 73.0696 73.8137 71.3557 73.0703C69.6417 72.3269 68.0999 71.2373 66.8269 69.87C66.3575 69.0057 65.7608 68.2169 65.0569 67.53C63.9662 66.4741 62.633 65.7022 61.1742 65.2821C59.7155 64.8619 58.1759 64.8065 56.6907 65.1206C55.2055 65.4347 53.8202 66.1088 52.6565 67.0835C51.4927 68.0583 50.5862 69.3039 50.0164 70.711C49.4467 72.118 49.2313 73.6435 49.389 75.1533C49.5468 76.6631 50.0729 78.1111 50.9212 79.37C51.7694 80.629 52.9139 81.6603 54.254 82.3734C55.5941 83.0866 57.0888 83.4597 58.6069 83.46C60.9912 83.4887 63.2972 82.6092 65.0569 81C65.7545 80.2964 66.3503 79.4987 66.8269 78.63C68.1044 77.2683 69.6471 76.1826 71.36 75.4397C73.0729 74.6967 74.9198 74.3123 76.7869 74.31H77.3569H78.2569C78.8331 74.4516 79.3448 74.7832 79.7095 75.2513C80.0742 75.7193 80.2705 76.2966 80.2669 76.89V77.37V77.16C80.2669 77.16 80.2669 77.16 80.2669 77.34C79.5021 82.8152 76.6894 87.7966 72.3961 91.2795C68.1028 94.7624 62.6484 96.4875 57.1332 96.1069C51.618 95.7262 46.4523 93.2682 42.6781 89.2286C38.904 85.189 36.8023 79.8684 36.7969 74.34V74.16V24C39.9638 24.008 43.0099 25.2169 45.3205 27.3828C47.6311 29.5486 49.0342 32.5102 49.2469 35.67V54.69C52.1822 53.3016 55.3898 52.5842 58.6369 52.59C60.8735 52.5945 63.0973 52.9281 65.2369 53.58C69.1439 54.8295 72.6214 57.1511 75.2734 60.2804C77.9253 63.4098 79.6451 67.221 80.2369 71.28C80.2369 71.28 80.2369 71.43 80.2369 71.49" fill="white"/>
<path d="M155.644 39H165V92.6271H155.644V87.436C154.254 89.2736 152.459 90.7365 150.41 91.7013C148.362 92.6661 146.12 93.1044 143.874 92.9791C141.479 93.0238 139.102 92.5277 136.91 91.5252C134.717 90.5226 132.759 89.0373 131.173 87.172C127.72 83.3432 125.863 78.2514 126.008 73.0064C125.873 67.7629 127.728 62.6746 131.173 58.8407C132.762 56.9811 134.72 55.5025 136.913 54.5074C139.106 53.5123 141.481 53.0245 143.874 53.0777C146.115 52.9545 148.353 53.3893 150.4 54.3457C152.447 55.3022 154.245 56.7528 155.644 58.5768V39ZM138.37 80.6611C140.32 82.5794 142.903 83.6485 145.589 83.6485C148.274 83.6485 150.857 82.5794 152.807 80.6611C154.637 78.5649 155.65 75.8363 155.65 73.0064C155.65 70.1765 154.637 67.4478 152.807 65.3516C150.857 63.4333 148.274 62.3643 145.589 62.3643C142.903 62.3643 140.32 63.4333 138.37 65.3516C136.523 67.4385 135.497 70.1707 135.497 73.0064C135.497 75.842 136.523 78.5742 138.37 80.6611Z" fill="#FBC531"/>
<path d="M184.24 77.5103C184.851 79.7414 186.277 81.6788 188.249 82.9597C190.222 84.2407 192.606 84.7774 194.955 84.4693C196.567 84.5611 198.178 84.2733 199.652 83.6303C201.126 82.9872 202.419 82.0079 203.422 80.775L211.315 85.0707C209.479 87.6516 206.996 89.7324 204.101 91.1157C201.207 92.4991 197.998 93.139 194.779 92.9748C192.01 93.099 189.245 92.6716 186.652 91.7187C184.059 90.7659 181.692 89.3077 179.698 87.4333C177.82 85.6085 176.347 83.4282 175.369 81.0269C174.39 78.6257 173.928 76.0546 174.009 73.4723C173.943 70.9021 174.409 68.3453 175.379 65.9542C176.348 63.5631 177.802 61.3865 179.654 59.5542C181.526 57.7117 183.77 56.2678 186.244 55.3139C188.719 54.36 191.37 53.917 194.029 54.0128C196.579 53.9783 199.107 54.4696 201.448 55.4542C203.788 56.4389 205.889 57.8947 207.611 59.7261C211.215 63.4779 213.148 68.4657 212.991 73.6012C213 74.9121 212.881 76.2209 212.638 77.5103H184.24ZM184.24 70.1217H203.554C203.166 67.9064 201.938 65.9138 200.115 64.5373C198.388 63.3103 196.299 62.6622 194.162 62.6901C191.825 62.5985 189.524 63.2798 187.635 64.6232C185.859 65.9634 184.613 67.8603 184.107 69.9928L184.24 70.1217Z" fill="#FBC531"/>
<path d="M248.613 55.0479H258V92.5962H248.613V87.5697C247.194 89.3576 245.376 90.7802 243.309 91.721C241.242 92.6619 238.984 93.0943 236.72 92.9828C234.352 93.0012 232.007 92.5043 229.845 91.5258C227.683 90.5474 225.755 89.1103 224.19 87.3119C220.726 83.5729 218.863 78.6005 219.008 73.4783C218.872 68.3578 220.734 63.3888 224.19 59.6447C225.757 57.852 227.687 56.4214 229.849 55.4503C232.011 54.4792 234.354 53.9903 236.72 54.0168C238.98 53.9071 241.233 54.336 243.299 55.2688C245.365 56.2016 247.185 57.6122 248.613 59.387V55.0479ZM231.241 80.8247C233.197 82.6981 235.789 83.7421 238.483 83.7421C241.177 83.7421 243.768 82.6981 245.725 80.8247C247.578 78.7868 248.607 76.1187 248.607 73.3494C248.607 70.5802 247.578 67.9121 245.725 65.8741C243.768 64.0008 241.177 62.9568 238.483 62.9568C235.789 62.9568 233.197 64.0008 231.241 65.8741C229.405 67.9212 228.388 70.5859 228.388 73.3494C228.388 76.113 229.405 78.7777 231.241 80.8247Z" fill="#FBC531"/>
<path d="M267 93V36H279V93H267Z" fill="#FBC531"/>
<path d="M291.067 48.5959C290.261 48.6235 289.459 48.4718 288.712 48.1506C287.966 47.8295 287.293 47.3461 286.737 46.7324C286.181 46.1764 285.741 45.506 285.443 44.7631C285.145 44.0202 284.996 43.2207 285.005 42.4147C284.971 41.5716 285.107 40.7304 285.406 39.9468C285.704 39.1632 286.158 38.4552 286.737 37.8698C287.286 37.2465 287.958 36.7567 288.706 36.4348C289.454 36.1129 290.26 35.9667 291.067 36.0064C292.637 36.0183 294.139 36.6781 295.25 37.8432C296.36 39.0084 296.988 40.5852 297 42.2329C297.009 43.0389 296.86 43.8384 296.562 44.5813C296.264 45.3242 295.823 45.9946 295.268 46.5506C294.739 47.1759 294.093 47.6802 293.37 48.032C292.648 48.3839 291.864 48.5758 291.067 48.5959ZM286.304 93V53.2772H296.09V93H286.304Z" fill="#FBC531"/>
<path d="M327.36 54.0216C329.305 53.9581 331.242 54.2891 333.046 54.9933C334.851 55.6976 336.483 56.7596 337.838 58.1109C339.268 59.6458 340.369 61.4393 341.079 63.388C341.789 65.3367 342.094 67.4021 341.975 69.4651V93H331.992V70.6831C332.068 69.6403 331.924 68.5933 331.568 67.6061C331.213 66.6188 330.653 65.712 329.923 64.9408C329.176 64.2715 328.297 63.7536 327.34 63.4174C326.382 63.0813 325.365 62.9336 324.347 62.9832C323.211 62.9349 322.078 63.1149 321.017 63.5117C319.957 63.9086 318.993 64.5136 318.187 65.2888C316.506 67.2291 315.668 69.7239 315.848 72.2492V93H306V55.0657H315.938V59.4159C317.202 57.6428 318.917 56.2149 320.918 55.27C322.919 54.3251 325.138 53.8951 327.36 54.0216Z" fill="#FBC531"/>
</svg>
