<svg width="24" height="24" viewBox="0 0 24 24" fill="none" xmlns="http://www.w3.org/2000/svg">
<path d="M2.38281 15.15L8.48281 11L13.9528 14.84L21.6428 8.48001" stroke="#ACACAC" stroke-width="1.5" stroke-miterlimit="10"/>
<path d="M18 2.75C18.8611 2.75264 19.6863 3.09589 20.2952 3.70482C20.9041 4.31374 21.2474 5.13886 21.25 6V18C21.2474 18.8611 20.9041 19.6863 20.2952 20.2952C19.6863 20.9041 18.8611 21.2474 18 21.25H6C5.13886 21.2474 4.31374 20.9041 3.70482 20.2952C3.09589 19.6863 2.75264 18.8611 2.75 18V6C2.75264 5.13886 3.09589 4.31374 3.70482 3.70482C4.31374 3.09589 5.13886 2.75264 6 2.75H18ZM18 2H6C4.93913 2 3.92172 2.42143 3.17157 3.17157C2.42143 3.92172 2 4.93913 2 6V18C2 19.0609 2.42143 20.0783 3.17157 20.8284C3.92172 21.5786 4.93913 22 6 22H18C19.0609 22 20.0783 21.5786 20.8284 20.8284C21.5786 20.0783 22 19.0609 22 18V6C22 4.93913 21.5786 3.92172 20.8284 3.17157C20.0783 2.42143 19.0609 2 18 2Z" fill="#ACACAC" stroke="#ACACAC"/>
</svg>
