<svg width="24" height="24" viewBox="0 0 24 24" fill="none" xmlns="http://www.w3.org/2000/svg">
<path d="M18.09 3C18.8856 3 19.6487 3.31607 20.2113 3.87868C20.7739 4.44129 21.09 5.20435 21.09 6V18.09C21.09 18.8856 20.7739 19.6487 20.2113 20.2113C19.6487 20.7739 18.8856 21.09 18.09 21.09H6C5.20435 21.09 4.44129 20.7739 3.87868 20.2113C3.31607 19.6487 3 18.8856 3 18.09V6C3 5.20435 3.31607 4.44129 3.87868 3.87868C4.44129 3.31607 5.20435 3 6 3H18.09ZM18.09 2H6C4.93913 2 3.92172 2.42143 3.17157 3.17157C2.42143 3.92172 2 4.93913 2 6V18.09C2 19.1509 2.42143 20.1683 3.17157 20.9184C3.92172 21.6686 4.93913 22.09 6 22.09H18.09C19.1509 22.09 20.1683 21.6686 20.9184 20.9184C21.6686 20.1683 22.09 19.1509 22.09 18.09V6C22.09 4.93913 21.6686 3.92172 20.9184 3.17157C20.1683 2.42143 19.1509 2 18.09 2Z" fill="#ACACAC" stroke="#ACACAC"/>
<path d="M17 11H7C6.73478 11 6.48043 11.1054 6.29289 11.2929C6.10536 11.4804 6 11.7348 6 12C6 12.2652 6.10536 12.5196 6.29289 12.7071C6.48043 12.8946 6.73478 13 7 13H17C17.2652 13 17.5196 12.8946 17.7071 12.7071C17.8946 12.5196 18 12.2652 18 12C18 11.7348 17.8946 11.4804 17.7071 11.2929C17.5196 11.1054 17.2652 11 17 11Z" fill="#ACACAC"/>
<path d="M17 15.5H7C6.73478 15.5 6.48043 15.6054 6.29289 15.7929C6.10536 15.9804 6 16.2348 6 16.5C6 16.7652 6.10536 17.0196 6.29289 17.2071C6.48043 17.3946 6.73478 17.5 7 17.5H17C17.2652 17.5 17.5196 17.3946 17.7071 17.2071C17.8946 17.0196 18 16.7652 18 16.5C18 16.2348 17.8946 15.9804 17.7071 15.7929C17.5196 15.6054 17.2652 15.5 17 15.5Z" fill="#ACACAC"/>
<path d="M17 6.48001H7C6.73478 6.48001 6.48043 6.58537 6.29289 6.7729C6.10536 6.96044 6 7.21479 6 7.48001C6 7.74523 6.10536 7.99958 6.29289 8.18712C6.48043 8.37465 6.73478 8.48001 7 8.48001H17C17.2652 8.48001 17.5196 8.37465 17.7071 8.18712C17.8946 7.99958 18 7.74523 18 7.48001C18 7.21479 17.8946 6.96044 17.7071 6.7729C17.5196 6.58537 17.2652 6.48001 17 6.48001Z" fill="#ACACAC"/>
</svg>
