<svg width="24" height="24" viewBox="0 0 24 24" fill="none" xmlns="http://www.w3.org/2000/svg">
<path d="M13.7707 2.75L14.0207 4.75L14.0807 5.2L14.5007 5.36C15.2278 5.62267 15.9043 6.00828 16.5007 6.5L16.8507 6.79L17.2707 6.61L19.1407 5.82L20.9007 8.91L19.2707 10.14L18.9107 10.41L18.9907 10.85C19.0508 11.2305 19.0843 11.6148 19.0907 12C19.0843 12.3852 19.0508 12.7695 18.9907 13.15L18.9107 13.59L19.2707 13.86L20.9007 15.09L19.1307 18.16L17.2607 17.37L16.8407 17.19L16.4907 17.48C15.8943 17.9717 15.2178 18.3573 14.4907 18.62L14.0707 18.78L14.0107 19.23L13.7607 21.23H10.2307L9.98073 19.23L9.92073 18.78L9.50073 18.62C8.7737 18.3573 8.0972 17.9717 7.50073 17.48L7.15073 17.19L6.73073 17.37L4.86073 18.16L3.10073 15.09L4.73073 13.86L5.09073 13.59L5.00073 13.15C4.94396 12.7692 4.91389 12.385 4.91073 12C4.91389 11.615 4.94396 11.2308 5.00073 10.85L5.08073 10.41L4.72073 10.14L3.10073 8.91L4.87073 5.84L6.74073 6.63L7.16073 6.81L7.51073 6.52C8.1072 6.02828 8.7837 5.64267 9.51073 5.38L9.93073 5.22L10.0007 4.77L10.2507 2.77H13.7907L13.7707 2.75ZM13.8907 2H10.1107C9.96098 2.00116 9.81671 2.05649 9.70459 2.15575C9.59246 2.25501 9.52005 2.3915 9.50073 2.54L9.23073 4.67C8.42389 4.97057 7.67088 5.39942 7.00073 5.94L5.00073 5.1C4.92138 5.08555 4.84008 5.08555 4.76073 5.1C4.65253 5.09943 4.54601 5.12673 4.45143 5.17927C4.35685 5.23182 4.2774 5.30783 4.22073 5.4L2.39073 8.64C2.31781 8.76975 2.29484 8.92168 2.32615 9.06719C2.35746 9.21269 2.44089 9.34173 2.56073 9.43L4.27073 10.73C4.20389 11.1502 4.16713 11.5746 4.16073 12C4.16713 12.4254 4.20389 12.8498 4.27073 13.27L2.56073 14.57C2.44089 14.6583 2.35746 14.7873 2.32615 14.9328C2.29484 15.0783 2.31781 15.2303 2.39073 15.36L4.28073 18.64C4.3374 18.7322 4.41685 18.8082 4.51143 18.8607C4.60601 18.9133 4.71253 18.9406 4.82073 18.94C4.90008 18.9544 4.98138 18.9544 5.06073 18.94L7.06073 18.1C7.72174 18.6378 8.46443 19.0665 9.26073 19.37L9.53073 21.5C9.55005 21.6485 9.62246 21.785 9.73459 21.8843C9.84671 21.9835 9.99098 22.0388 10.1407 22.04H13.9207C14.0705 22.0388 14.2147 21.9835 14.3269 21.8843C14.439 21.785 14.5114 21.6485 14.5307 21.5L14.8007 19.37C15.5996 19.0543 16.3425 18.6119 17.0007 18.06L19.0007 18.9C19.0801 18.9144 19.1614 18.9144 19.2407 18.9C19.3489 18.9006 19.4554 18.8733 19.55 18.8207C19.6446 18.7682 19.7241 18.6922 19.7807 18.6L21.6707 15.32C21.7436 15.1903 21.7666 15.0383 21.7353 14.8928C21.704 14.7473 21.6206 14.6183 21.5007 14.53L19.7907 13.23C19.8356 12.8216 19.8523 12.4107 19.8407 12C19.8343 11.5746 19.7976 11.1502 19.7307 10.73L21.4407 9.43C21.5606 9.34173 21.644 9.21269 21.6753 9.06719C21.7066 8.92168 21.6836 8.76975 21.6107 8.64L19.7207 5.36C19.6641 5.26783 19.5846 5.19182 19.49 5.13927C19.3954 5.08673 19.2889 5.05943 19.1807 5.06C19.1014 5.04555 19.0201 5.04555 18.9407 5.06L16.9407 5.9C16.2797 5.3622 15.537 4.93346 14.7407 4.63L14.5007 2.54C14.4814 2.3915 14.409 2.25501 14.2969 2.15575C14.1847 2.05649 14.0405 2.00116 13.8907 2Z" fill="#666666" stroke="#666666"/>
<path d="M12.0022 9.24023C12.5481 9.24023 13.0817 9.40211 13.5356 9.70538C13.9894 10.0087 14.3432 10.4397 14.5521 10.944C14.761 11.4484 14.8157 12.0033 14.7092 12.5387C14.6027 13.0741 14.3398 13.5659 13.9538 13.9518C13.5678 14.3378 13.076 14.6007 12.5406 14.7072C12.0053 14.8137 11.4503 14.759 10.946 14.5501C10.4417 14.3412 10.0106 13.9875 9.70733 13.5336C9.40406 13.0797 9.24219 12.5461 9.24219 12.0002C9.24482 11.269 9.53645 10.5686 10.0535 10.0515C10.5705 9.5345 11.271 9.24287 12.0022 9.24023ZM12.0022 8.49023C11.308 8.49023 10.6294 8.69609 10.0521 9.08178C9.47492 9.46746 9.02504 10.0156 8.75937 10.657C8.49371 11.2984 8.4242 12.0041 8.55963 12.685C8.69507 13.3659 9.02936 13.9913 9.52024 14.4822C10.0111 14.9731 10.6365 15.3074 11.3174 15.4428C11.9983 15.5782 12.704 15.5087 13.3454 15.2431C13.9868 14.9774 14.535 14.5275 14.9206 13.9503C15.3063 13.3731 15.5122 12.6944 15.5122 12.0002C15.5122 11.0693 15.1424 10.1765 14.4841 9.51829C13.8259 8.86004 12.9331 8.49023 12.0022 8.49023Z" fill="#666666" stroke="#666666"/>
</svg>
