<svg width="24" height="24" viewBox="0 0 24 24" fill="none" xmlns="http://www.w3.org/2000/svg">
<path d="M17.003 1.99987H19.673C20.2389 1.98986 20.7889 2.18801 21.2184 2.55669C21.6479 2.92538 21.9271 3.43893 22.003 3.99987V10.9999C21.9271 11.5608 21.6479 12.0744 21.2184 12.4431C20.7889 12.8117 20.2389 13.0099 19.673 12.9999H17.003M10.003 14.9999V18.9999C10.003 19.7955 10.319 20.5586 10.8816 21.1212C11.4442 21.6838 12.2073 21.9999 13.003 21.9999L17.003 12.9999V1.99987H5.72296C5.24063 1.99442 4.77258 2.16347 4.40505 2.47587C4.03753 2.78827 3.79528 3.22297 3.72296 3.69987L2.34296 12.6999C2.29945 12.9865 2.31879 13.2792 2.39962 13.5576C2.48046 13.8361 2.62086 14.0936 2.8111 14.3124C3.00135 14.5311 3.23688 14.7059 3.50139 14.8247C3.7659 14.9434 4.05305 15.0032 4.34296 14.9999H10.003Z" stroke="#666666" stroke-width="2" stroke-linecap="round" stroke-linejoin="round"/>
</svg>
